     *********** ****    ****      ***      ******** *********** ****    *** **********
          *+*     +*+*+* *+*+*+   *+* *+*   *+*    *+*    *+*     *+*+*   *+* *+*        
          +*+     +*+ +*+*+ +*+  +*+   +*+  +*+           +*+     *+*+*+  +*+ +*+        
          +$+     +$+  +*+  +$+ +$++*++$++* *$*           +$+     +$+ +*+ +$+ +$++*++$  
          +$+     +$+       +$+ +$+     +$+ +$+   +$+$    +$+     +$+  +$+$+$ +$+        
          $+$     $+$       $+$ $+$     $+$ $+$    $+$    $+$     $+$   $+$+$ $+$        
      $$$$$$$$$$$ $$$       $$$ $$$     $$$  $$$$$$$$ $$$$$$$$$$$ $$$    $$$$ $$$$$$$$$$    
                                               



                          Another Fine Release Brought to you from - IMAGiNE                  
                                             http://imaginegroup.me/  
   
********************************************************************************************************************                                
                                         Legion CAM XVID - IMAGiNE
********************************************************************************************************************

Ripper ...........: IMAGiNE                                        IMDB Rating.......:5.9/10                            
Video Codec.......: XVID                                         Release Date......:25/01/10
Audio Codec.......:MP3                                           Theatre Date......:22/01/10
Audio Bitrate.....:128                                              Runtime.......:1h 29mn
Subtitles.........:NIL                                                 Language..........:ENGLISH
Resolution...... 600 x 300                                      IMDb URL..........:http://www.imdb.com/title/tt1038686/


DETAILS:

Video
ID                               : 0
Format                           : MPEG-4 Visual
Format profile                   : Advanced Simple@L5
Format settings, BVOP            : Yes
Format settings, QPel            : No
Format settings, GMC             : No warppoints
Format settings, Matrix          : Default (H.263)
Muxing mode                      : Packed bitstream
Codec ID                         : XVID
Codec ID/Hint                    : XviD
Duration                         : 1h 29mn
Bit rate                         : 967 Kbps
Width                            : 600 pixels
Height                           : 300 pixels
Display aspect ratio             : 2.000
Frame rate                       : 23.976 fps
Resolution                       : 8 bits
Colorimetry                      : 4:2:0
Scan type                        : Progressive
Bits/(Pixel*Frame)               : 0.224
Stream size                      : 620 MiB (88%)
Writing library                  : XviD 1.2.1 (UTC 2008-12-04)

Audio
ID                               : 1
Format                           : MPEG Audio
Format version                   : Version 1
Format profile                   : Layer 3
Mode                             : Joint stereo
Format_Settings_ModeExtension    : MS Stereo
Codec ID                         : 55
Codec ID/Hint                    : MP3
Duration                         : 1h 29mn
Bit rate mode                    : Constant
Bit rate                         : 128 Kbps
Channel(s)                       : 2 channels
Sampling rate                    : 48.0 KHz
Stream size                      : 82.1 MiB (12%)
Alignment                        : Split accross interleaves
Interleave, duration             : 42 ms (1.00 video frame)
Interleave, preload duration     : 500 ms


NOTES:

IMAGiNE bringing you another release.....
Source for this we grabbed off warez just before it started spreading on torrent sites,but after grabbing the GM release
it was the same source so thanks to whoever for it
This is just an old fashion re-encode of the avi file had.....source is nothing great,had bad colouring,way too much red,lots
of video noise,filmed at a angle etc.....
Well we fixed alot but not all of the issues and don't forgot we can't make things look like r5's when the source ain't great to
start with
Audio is untouched ......and hopefully we'll have some nice direct audio soon for this,but also hoping by the time we get it there
will be some better video,but for now this will have to do.